<svg width="1765" height="475" viewBox="0 0 1765 475" fill="none" xmlns="http://www.w3.org/2000/svg">
<rect width="1765" height="475" fill="white"/>
<path d="M620.161 333.022V204.748C622.187 203.995 626.594 203.147 633.383 202.205C640.171 201.263 648.226 200.793 657.548 200.793C666.261 200.793 673.506 201.781 679.281 203.759C685.056 205.737 689.717 208.986 693.263 213.507C696.81 218.028 699.343 223.867 700.862 231.024C702.382 238.182 703.142 246.941 703.142 257.301V333.022H722.9V251.367C722.9 241.384 721.886 232.249 719.86 223.961C717.834 215.673 714.439 208.562 709.677 202.629C704.915 196.696 698.532 192.128 690.528 188.926C682.523 185.724 672.543 184.123 660.587 184.123C646.2 184.123 634.041 185.064 624.112 186.948C614.183 188.832 606.28 190.527 600.403 192.034V333.022H620.161ZM840.127 336.13C850.665 336.13 859.834 335.094 867.636 333.022C875.437 330.95 880.757 329.16 883.594 327.653L879.946 311.831C877.109 313.15 872.55 314.751 866.268 316.634C859.986 318.518 851.475 319.46 840.735 319.46C821.282 319.46 807.097 314.656 798.181 305.05C789.264 295.444 784.502 281.693 783.894 263.799H894.232C894.435 262.481 894.587 261.068 894.688 259.561C894.79 258.054 894.84 256.547 894.84 255.04C894.84 230.742 889.116 212.753 877.667 201.075C866.217 189.397 850.867 183.558 831.616 183.558C822.903 183.558 814.443 185.112 806.236 188.219C798.029 191.327 790.734 196.084 784.35 202.488C777.967 208.892 772.8 216.85 768.848 226.362C764.897 235.875 762.921 247.035 762.921 259.844C762.921 270.957 764.34 281.175 767.177 290.499C770.014 299.823 774.573 307.875 780.855 314.656C787.137 321.437 795.141 326.711 804.868 330.479C814.595 334.246 826.348 336.13 840.127 336.13ZM874.475 248.259H784.502C784.908 241.855 786.275 235.733 788.606 229.894C790.936 224.055 794.179 218.922 798.333 214.496C802.487 210.069 807.35 206.538 812.923 203.9C818.495 201.263 824.828 199.945 831.92 199.945C845.295 199.945 855.629 204.183 862.924 212.659C870.22 221.135 874.07 233.002 874.475 248.259ZM940.637 333.022C943.069 328.878 946.007 324.122 949.452 318.753C952.897 313.385 956.697 307.781 960.851 301.942C965.005 296.103 969.311 290.17 973.769 284.142C978.227 278.115 982.685 272.37 987.143 266.907C991.399 272.37 995.806 278.115 1000.37 284.142C1004.93 290.17 1009.28 296.103 1013.44 301.942C1017.59 307.781 1021.39 313.385 1024.83 318.753C1028.28 324.122 1031.22 328.878 1033.65 333.022H1054.93C1051.08 326.052 1046.87 318.989 1042.31 311.831C1037.75 304.673 1033.04 297.751 1028.18 291.064C1023.31 284.378 1018.45 277.926 1013.59 271.71C1008.72 265.494 1004.17 259.749 999.91 254.475L1050.06 186.948H1028.48L987.143 242.891L946.412 186.948H923.311L974.377 255.605C964.853 267.661 955.531 279.951 946.412 292.477C937.294 305.003 928.58 318.518 920.272 333.022H940.637ZM1138.41 336.13C1146.72 336.13 1154.42 335.046 1161.52 332.88C1168.61 330.714 1173.57 328.783 1176.41 327.088L1171.55 311.831C1168.71 313.338 1164.76 314.986 1159.69 316.775C1154.63 318.565 1147.94 319.46 1139.63 319.46C1134.77 319.46 1130.31 318.989 1126.26 318.047C1122.2 317.105 1118.76 315.222 1115.92 312.396C1113.08 309.571 1110.91 305.568 1109.39 300.388C1107.87 295.208 1107.11 288.474 1107.11 280.186V202.488H1169.72V186.948H1107.11V140.611L1087.35 144.002V278.491C1087.35 288.286 1088.16 296.762 1089.78 303.92C1091.4 311.078 1094.19 317.058 1098.14 321.861C1102.09 326.664 1107.36 330.243 1113.95 332.598C1120.53 334.952 1128.69 336.13 1138.41 336.13ZM1247.74 260.126V242.326H1179.04V260.126H1247.74ZM1291.1 156.999C1295.16 156.999 1298.6 155.727 1301.44 153.184C1304.28 150.642 1305.69 147.204 1305.69 142.872C1305.69 138.539 1304.28 135.102 1301.44 132.559C1298.6 130.016 1295.16 128.745 1291.1 128.745C1287.05 128.745 1283.61 130.016 1280.77 132.559C1277.93 135.102 1276.51 138.539 1276.51 142.872C1276.51 147.204 1277.93 150.642 1280.77 153.184C1283.61 155.727 1287.05 156.999 1291.1 156.999ZM1301.14 333.022V186.948H1281.38V333.022H1301.14ZM1372.16 333.022V204.748C1374.19 203.995 1378.6 203.147 1385.38 202.205C1392.17 201.263 1400.23 200.793 1409.55 200.793C1418.26 200.793 1425.51 201.781 1431.28 203.759C1437.06 205.737 1441.72 208.986 1445.26 213.507C1448.81 218.028 1451.34 223.867 1452.86 231.024C1454.38 238.182 1455.14 246.941 1455.14 257.301V333.022H1474.9V251.367C1474.9 241.384 1473.89 232.249 1471.86 223.961C1469.83 215.673 1466.44 208.562 1461.68 202.629C1456.92 196.696 1450.53 192.128 1442.53 188.926C1434.52 185.724 1424.54 184.123 1412.59 184.123C1398.2 184.123 1386.04 185.064 1376.11 186.948C1366.18 188.832 1358.28 190.527 1352.4 192.034V333.022H1372.16ZM1574.19 336.13C1582.5 336.13 1590.2 335.046 1597.3 332.88C1604.39 330.714 1609.35 328.783 1612.19 327.088L1607.33 311.831C1604.49 313.338 1600.54 314.986 1595.47 316.775C1590.41 318.565 1583.72 319.46 1575.41 319.46C1570.55 319.46 1566.09 318.989 1562.04 318.047C1557.98 317.105 1554.54 315.222 1551.7 312.396C1548.86 309.571 1546.69 305.568 1545.17 300.388C1543.65 295.208 1542.89 288.474 1542.89 280.186V202.488H1605.5V186.948H1542.89V140.611L1523.13 144.002V278.491C1523.13 288.286 1523.94 296.762 1525.56 303.92C1527.18 311.078 1529.97 317.058 1533.92 321.861C1537.87 326.664 1543.14 330.243 1549.73 332.598C1556.31 334.952 1564.47 336.13 1574.19 336.13ZM1680.78 335.564L1683.52 320.307C1679.47 319.742 1675.97 319.083 1673.03 318.329C1670.09 317.576 1667.71 316.399 1665.89 314.798C1664.07 313.197 1662.7 311.03 1661.79 308.299C1660.87 305.568 1660.42 301.942 1660.42 297.421V113.77L1640.66 117.161V297.987C1640.66 304.956 1641.52 310.748 1643.24 315.363C1644.97 319.978 1647.5 323.745 1650.84 326.664C1654.19 329.584 1658.34 331.75 1663.31 333.163C1668.27 334.576 1674.1 335.376 1680.78 335.564Z" fill="black"/>
<path fill-rule="evenodd" clip-rule="evenodd" d="M272.728 48.7617C326.027 48.7617 374.281 68.8432 409.21 101.311C444.139 133.778 465.743 178.631 465.743 228.175C465.743 266.446 452.854 301.919 430.886 331.045C423.502 340.835 415.093 349.907 405.804 358.129C401.536 361.906 397.082 365.504 392.456 368.91C359.553 393.129 317.957 407.588 272.728 407.588C219.428 407.588 171.174 387.507 136.245 355.039C101.316 322.572 79.7122 277.719 79.7122 228.175C79.7122 178.631 101.316 133.778 136.245 101.311C171.174 68.8432 219.428 48.7617 272.728 48.7617Z" stroke="#5FC3E7" stroke-width="18"/>
<path d="M440.411 335.541H397.857V365.678H440.411V335.541Z" fill="white"/>
<path d="M403.632 368.504C408.668 368.504 412.751 364.709 412.751 360.027C412.751 355.346 408.668 351.551 403.632 351.551C398.596 351.551 394.513 355.346 394.513 360.027C394.513 364.709 398.596 368.504 403.632 368.504Z" fill="#5FC3E7"/>
<path d="M110.613 139.175L428.253 139.646" stroke="#5FC3E7" stroke-width="18" stroke-linecap="square"/>
<path d="M274.752 407.588C327.073 407.588 369.487 327.262 369.487 228.175C369.487 129.088 327.073 48.7617 274.752 48.7617C222.432 48.7617 180.018 129.088 180.018 228.175C180.018 327.262 222.432 407.588 274.752 407.588Z" stroke="#5FC3E7" stroke-width="18"/>
<path d="M120.239 327.064H428.253" stroke="#5FC3E7" stroke-width="18" stroke-linecap="square"/>
<path d="M79.2039 234.297H464.221" stroke="#5FC3E7" stroke-width="18" stroke-linecap="square"/>
</svg>
